<?xml version="1.0" standalone="no"?>
<!DOCTYPE svg PUBLIC "-//W3C//DTD SVG 20010904//EN"
 "http://www.w3.org/TR/2001/REC-SVG-20010904/DTD/svg10.dtd">
<svg version="1.0" xmlns="http://www.w3.org/2000/svg"
 width="413.000000pt" height="399.000000pt" viewBox="0 0 413.000000 399.000000"
 preserveAspectRatio="xMidYMid meet">

<g transform="translate(0.000000,399.000000) scale(0.100000,-0.100000)"
fill="#000000" stroke="none">
<path d="M1815 3605 c-5 -2 -59 -11 -118 -20 -77 -11 -119 -22 -146 -39 -37
-24 -90 -79 -92 -97 -1 -5 -3 -13 -4 -19 -1 -5 -3 -30 -4 -55 -1 -42 -3 -46
-38 -60 -49 -19 -68 -31 -67 -42 0 -4 -10 -19 -23 -32 -18 -19 -23 -21 -23 -8
0 15 -2 15 -19 -2 -12 -12 -20 -38 -23 -73 -3 -37 -16 -78 -41 -126 -21 -40
-35 -72 -33 -72 3 0 -1 -15 -9 -34 -20 -47 -32 -182 -17 -172 7 4 15 0 18 -11
3 -10 14 -34 25 -54 11 -21 19 -57 19 -82 0 -25 5 -49 11 -52 6 -4 9 -23 7
-44 -2 -26 1 -35 10 -33 8 1 11 -2 7 -8 -7 -12 25 -90 37 -90 4 0 8 -9 8 -20
0 -27 28 -25 33 3 4 23 5 21 23 -30 6 -16 7 -16 14 2 6 17 9 13 19 -22 7 -24
16 -43 21 -43 4 0 11 35 14 78 4 42 11 100 16 127 6 28 12 109 14 180 2 72 7
146 11 165 4 19 7 48 8 64 1 42 126 166 167 166 16 0 44 9 62 20 39 24 78 26
78 5 0 -10 10 -15 34 -15 19 0 38 -5 41 -10 5 -8 11 -7 21 1 11 9 18 9 26 1 7
-7 22 -12 34 -12 13 0 26 -4 29 -10 3 -5 14 -10 24 -10 10 0 24 -7 31 -15 7
-9 21 -13 30 -10 19 6 40 -11 67 -51 8 -13 19 -21 25 -18 13 8 38 -15 38 -37
0 -14 7 -19 28 -19 37 0 72 -10 72 -21 0 -14 33 -49 47 -49 7 0 13 -7 13 -15
0 -7 8 -18 17 -24 14 -7 15 -12 5 -24 -10 -12 -8 -16 13 -21 19 -5 25 -13 25
-35 0 -17 -6 -31 -16 -35 -8 -3 -13 -10 -9 -15 3 -6 13 -7 22 -4 14 5 15 1 9
-33 -4 -21 -15 -46 -23 -54 -9 -8 -13 -9 -9 -2 4 6 2 12 -3 12 -6 0 -11 -4
-11 -8 0 -9 -64 -42 -81 -42 -6 0 -25 -7 -42 -15 -18 -8 -43 -16 -57 -18 -44
-7 -75 -24 -86 -48 -39 -83 -52 -298 -22 -357 14 -26 15 -37 6 -52 -14 -21
-50 -40 -79 -40 -17 0 -18 -3 -7 -20 7 -11 17 -20 22 -20 5 0 30 -9 55 -21 25
-11 63 -28 84 -37 34 -16 36 -19 24 -36 -12 -16 -30 -18 -188 -18 -96 0 -195
3 -220 7 -44 7 -46 6 -51 -19 -6 -29 9 -34 27 -9 11 15 16 12 53 -25 26 -27
55 -44 83 -52 24 -6 51 -15 60 -20 10 -5 20 -5 25 0 5 5 26 5 49 0 22 -5 59
-10 82 -10 50 0 62 -13 31 -34 -17 -12 -18 -16 -6 -16 20 0 30 -34 14 -50 -8
-8 -6 -15 8 -26 16 -11 17 -14 4 -14 -13 0 -15 -8 -11 -37 4 -34 0 -43 -35
-81 l-41 -44 -73 6 c-106 8 -146 16 -159 32 -6 8 -17 14 -24 14 -8 0 -15 4
-17 8 -6 14 -68 54 -68 43 0 -13 157 -110 190 -117 14 -4 89 -38 168 -76 79
-38 150 -67 158 -64 8 3 14 1 14 -3 0 -5 3 -17 7 -27 5 -13 3 -16 -10 -11 -18
7 -19 -12 -2 -25 6 -5 5 -12 -5 -17 -8 -6 -11 -13 -7 -17 4 -4 20 5 35 19 16
15 33 27 38 27 6 0 21 11 33 24 13 14 29 22 36 20 7 -3 16 -1 20 5 4 7 0 8
-12 4 -18 -7 50 84 75 100 6 4 12 17 12 27 0 10 4 21 9 25 16 9 61 112 70 158
4 24 5 67 1 95 -3 28 -3 49 0 47 11 -7 33 -123 27 -140 -4 -8 -3 -15 1 -15 12
0 14 -252 2 -305 -12 -56 -38 -256 -37 -295 0 -25 -40 -348 -68 -550 -8 -58
-22 -159 -30 -225 -9 -66 -18 -128 -21 -137 -5 -17 40 -18 850 -18 l856 0 -2
373 c-1 275 -3 360 -11 327 -10 -46 -11 -59 -5 -172 2 -36 0 -64 -5 -61 -4 3
-5 -12 -2 -34 4 -25 3 -33 -3 -23 -5 8 -14 44 -21 80 -10 57 -74 333 -118 508
-8 34 -24 79 -34 99 -23 45 -23 47 -3 39 11 -4 14 -1 10 12 -3 9 -10 38 -17
65 -6 26 -17 47 -24 47 -17 0 -28 -59 -14 -76 9 -11 5 -11 -22 -4 -33 10 -54
30 -40 40 4 3 7 52 7 110 -1 58 3 124 8 148 6 30 5 42 -3 42 -6 0 -11 -10 -11
-22 0 -13 -5 -30 -11 -38 -8 -11 -9 -4 -5 28 4 25 2 42 -4 42 -13 0 -13 37 0
45 6 3 10 47 9 98 0 61 -3 85 -9 72 -5 -11 -9 -55 -9 -97 -1 -45 -5 -78 -11
-78 -5 0 -10 -11 -10 -24 0 -14 -5 -28 -12 -32 -7 -4 -8 -3 -4 4 10 17 -12 52
-29 46 -10 -4 -18 3 -25 21 -13 34 -13 35 5 35 8 0 15 8 15 18 0 17 -36 102
-44 102 -1 0 -3 -39 -4 -87 l-1 -88 42 -43 42 -43 0 -87 c-1 -69 -6 -142 -10
-142 -3 0 -175 73 -192 82 -12 6 -20 16 -16 21 4 6 1 7 -7 2 -6 -4 -35 0 -64
9 -28 8 -87 27 -131 41 -44 13 -99 29 -122 35 -32 8 -43 16 -43 30 0 10 5 22
11 25 7 5 5 11 -4 18 -8 7 -20 37 -27 67 -7 30 -19 62 -26 70 -7 9 -15 36 -18
60 -2 25 -7 79 -11 120 -4 41 -12 83 -17 93 -13 24 -12 221 1 244 20 36 44 94
40 97 -7 8 -44 -29 -63 -63 -10 -18 -19 -56 -20 -88 -2 -34 -8 -58 -17 -65
-11 -7 -11 -11 -1 -15 17 -7 15 -33 -3 -33 -20 0 -36 43 -29 77 3 16 -3 60
-14 100 -11 39 -18 74 -15 77 7 6 -16 36 -26 36 -4 0 -7 -15 -5 -32 1 -18 -4
-42 -11 -54 -11 -17 -10 -27 10 -67 29 -55 22 -104 -13 -100 -16 2 -20 -2 -15
-13 4 -12 14 -14 36 -10 26 5 29 4 24 -15 -4 -16 -3 -18 8 -9 15 12 31 -3 20
-19 -3 -6 2 -14 11 -19 10 -5 14 -15 10 -21 -6 -9 -12 -9 -24 1 -13 12 -14 10
-4 -9 16 -29 15 -43 -2 -43 -7 0 -16 9 -19 20 -3 11 -12 20 -21 20 -10 0 -16
9 -16 25 0 18 -4 23 -16 18 -13 -5 -15 -2 -10 15 4 11 2 23 -4 27 -5 3 -10 3
-11 -2 -4 -42 -6 -54 -12 -59 -9 -9 -6 110 4 122 5 7 -5 11 -30 12 l-39 3 -4
-53 c-4 -43 1 -65 24 -115 16 -34 33 -65 38 -68 6 -3 10 -18 10 -33 0 -15 6
-36 14 -47 7 -11 17 -31 21 -45 4 -14 20 -51 36 -82 15 -32 26 -58 24 -58 -2
0 2 -12 10 -27 8 -15 12 -29 10 -31 -6 -6 -222 66 -271 91 -23 11 -69 45 -104
77 -56 50 -62 60 -57 86 42 212 61 281 88 315 38 49 49 80 49 144 0 30 5 57
10 60 6 3 10 14 10 23 0 10 14 28 30 42 17 14 30 33 30 42 0 21 16 24 23 6 4
-10 6 -9 6 1 1 17 47 59 81 73 l25 11 -30 6 c-28 6 -30 9 -29 51 3 86 0 81 47
74 31 -4 38 -3 27 5 -8 6 -27 11 -42 11 -48 0 -38 25 32 81 21 17 22 19 3 10
-34 -17 -35 -15 -30 46 4 44 1 66 -14 95 -14 28 -17 43 -9 62 5 15 6 27 2 28
-4 0 -11 2 -17 3 -5 2 -16 3 -24 4 -10 1 -12 10 -7 35 6 29 3 35 -14 41 -11 3
-20 13 -20 21 0 8 -8 14 -17 14 -16 0 -73 56 -73 72 0 5 -20 49 -45 99 -25 50
-45 98 -45 106 0 26 -39 71 -88 101 -76 47 -244 111 -322 123 -73 11 -294 7
-340 -6 -25 -7 -25 -7 -4 8 11 9 43 17 70 20 39 3 35 4 -21 4 -38 1 -74 0 -80
-2z m-255 -93 c0 -4 -11 -24 -25 -44 -14 -20 -25 -43 -25 -50 0 -8 -5 -6 -11
5 -10 18 -8 23 36 83 11 15 25 19 25 6z m-137 -250 c-23 -20 -44 -47 -48 -59
-7 -25 -45 -32 -45 -9 0 18 97 106 118 106 12 -1 4 -12 -25 -38z m-133 -71 c0
-6 -4 -13 -10 -16 -5 -3 -10 1 -10 9 0 9 5 16 10 16 6 0 10 -4 10 -9z m940
-297 c0 -8 -4 -12 -10 -9 -5 3 -10 10 -10 16 0 5 5 9 10 9 6 0 10 -7 10 -16z
m610 -28 c0 -5 -7 -3 -15 4 -8 7 -12 17 -9 22 7 10 24 -9 24 -26z m-440 -501
c0 -2 -7 -8 -15 -15 -12 -10 -15 -10 -15 2 0 8 7 15 15 15 8 0 15 -1 15 -2z
m-30 -186 c69 1 104 -101 64 -183 -8 -16 -14 -34 -14 -41 0 -15 -48 -56 -69
-60 -18 -2 -19 -7 -7 -47 8 -27 26 -39 26 -18 0 6 7 10 15 10 18 0 18 0 1 -72
-15 -62 -24 -75 -71 -98 -16 -8 -35 -22 -42 -30 -11 -13 -12 -13 -13 3 0 10
10 22 23 27 12 5 16 9 10 9 -14 1 -19 91 -5 91 4 0 8 30 9 65 2 49 -1 67 -11
71 -10 4 -13 16 -9 39 3 21 -1 45 -12 67 -32 60 -35 68 -35 88 0 23 18 27 26
5 11 -27 24 -16 18 15 -4 19 -2 30 5 30 6 0 11 5 11 10 0 6 -6 10 -14 10 -8 0
-18 5 -22 11 -5 9 6 10 42 5 27 -4 60 -7 74 -7z m475 -119 c-3 -5 -13 -10 -21
-10 -8 0 -14 5 -14 10 0 6 9 10 21 10 11 0 17 -4 14 -10z m205 -180 c0 -5 -5
-10 -11 -10 -5 0 -7 5 -4 10 3 6 8 10 11 10 2 0 4 -4 4 -10z m-25 -34 c21 -11
28 -23 31 -50 4 -45 -6 -46 -30 -1 -11 19 -22 35 -27 35 -4 0 -9 7 -13 15 -7
19 4 19 39 1z m1 -131 c4 -8 10 -13 14 -10 11 7 59 -88 62 -122 2 -37 -11 -75
-23 -67 -6 3 -8 12 -5 20 3 8 -1 17 -9 20 -21 8 -19 42 3 47 14 4 14 6 -5 12
-13 4 -23 14 -23 21 0 8 -5 14 -11 14 -6 0 -8 7 -5 16 3 8 -1 26 -10 40 -11
15 -12 24 -5 24 6 0 14 -7 17 -15z m-759 -121 c-3 -3 -12 -4 -19 -1 -8 3 -5 6
6 6 11 1 17 -2 13 -5z m-7 -24 c0 -5 -8 -10 -17 -10 -15 0 -16 2 -3 10 19 12
20 12 20 0z m-5 -30 c3 -5 1 -10 -4 -10 -6 0 -11 5 -11 10 0 6 2 10 4 10 3 0
8 -4 11 -10z m823 -39 c9 -5 30 -14 46 -20 16 -7 26 -15 22 -18 -5 -6 -22 0
-106 35 -24 10 -25 11 -2 11 12 1 30 -3 40 -8z m62 -1 c13 -8 13 -10 -2 -10
-9 0 -20 5 -23 10 -8 13 5 13 25 0z m640 -16 c0 -8 -5 -12 -10 -9 -6 4 -8 11
-5 16 9 14 15 11 15 -7z m-1481 -287 c-2 -1 -13 -9 -24 -17 -19 -14 -19 -14
-6 3 7 9 18 17 24 17 6 0 8 -1 6 -3z"/>
<path d="M1355 3330 c3 -5 8 -10 11 -10 2 0 4 5 4 10 0 6 -5 10 -11 10 -5 0
-7 -4 -4 -10z"/>
<path d="M2145 2890 c3 -5 8 -10 11 -10 2 0 4 5 4 10 0 6 -5 10 -11 10 -5 0
-7 -4 -4 -10z"/>
<path d="M1557 2502 c-33 -9 -52 -21 -59 -37 -17 -37 3 -54 59 -50 25 1 57 -1
72 -5 20 -7 22 -8 6 -9 -28 -1 -85 -38 -85 -54 0 -20 61 -45 98 -40 36 6 42
19 12 28 -11 4 -18 11 -15 16 11 17 33 9 39 -15 5 -19 11 -22 32 -18 19 3 25
1 20 -7 -4 -7 0 -11 11 -11 17 -1 17 -1 1 -14 -29 -21 -21 -29 23 -22 56 9 84
25 70 39 -16 16 -13 28 7 25 10 -2 16 2 14 11 -6 29 8 47 40 49 56 4 59 54 4
71 -25 8 -165 26 -269 36 -10 1 -22 6 -25 11 -5 7 -24 5 -55 -4z m243 -147 c0
-8 -4 -15 -10 -15 -5 0 -10 7 -10 15 0 8 5 15 10 15 6 0 10 -7 10 -15z"/>
<path d="M3294 2362 c-16 -11 -27 -75 -11 -69 6 2 11 12 9 21 -2 10 2 24 9 32
13 16 9 27 -7 16z"/>
<path d="M3135 2309 c-4 -6 -5 -12 -2 -15 2 -3 7 2 10 11 7 17 1 20 -8 4z"/>
<path d="M3766 2218 c-7 -34 -3 -44 13 -33 13 8 15 52 2 59 -5 3 -11 -8 -15
-26z"/>
<path d="M3560 2204 c-13 -33 -13 -54 0 -54 11 0 30 42 30 66 0 23 -20 16 -30
-12z"/>
<path d="M3327 2213 c-4 -3 -7 -11 -7 -17 0 -6 5 -5 12 2 6 6 9 14 7 17 -3 3
-9 2 -12 -2z"/>
<path d="M3429 2193 c-12 -3 -16 -18 -16 -63 -1 -33 3 -60 8 -60 5 0 9 13 9
29 0 20 6 30 20 34 11 3 20 11 20 17 0 7 -7 10 -16 6 -13 -5 -15 -1 -12 19 3
14 5 24 4 24 0 -1 -8 -3 -17 -6z"/>
<path d="M3738 2178 c-7 -18 -24 -284 -20 -316 2 -13 -1 -29 -6 -35 -23 -29
-22 -54 2 -80 32 -35 48 -35 40 1 -10 46 -14 53 -24 47 -6 -3 -7 1 -4 9 3 9
12 16 20 16 8 0 14 10 14 25 0 16 -6 25 -15 25 -8 0 -15 7 -15 15 0 25 27 17
34 -10 4 -14 10 -25 15 -25 10 0 23 88 15 101 -9 16 -26 -2 -21 -22 3 -12 0
-19 -9 -19 -10 0 -13 12 -9 51 2 28 8 56 14 63 6 7 8 16 4 19 -3 4 -1 13 5 20
7 8 9 17 5 21 -5 4 -15 30 -24 58 -10 32 -18 45 -21 36z"/>
<path d="M2830 2100 c0 -5 5 -10 10 -10 6 0 10 5 10 10 0 6 -4 10 -10 10 -5 0
-10 -4 -10 -10z"/>
<path d="M3526 2068 c-25 -34 -26 -80 -3 -95 6 -4 8 0 4 10 -3 9 -2 19 4 23 5
3 7 14 4 24 -3 10 -1 21 5 25 5 3 15 15 20 26 17 32 -6 22 -34 -13z"/>
<path d="M1728 1988 c-31 -34 -35 -48 -14 -48 12 0 56 60 56 76 0 11 -17 0
-42 -28z"/>
<path d="M1880 2001 c-12 -9 -12 -11 2 -16 23 -9 63 -2 61 10 -3 14 -45 17
-63 6z"/>
<path d="M3363 1984 c-3 -8 -3 -44 -1 -79 3 -35 1 -66 -4 -67 -11 -4 -18 -137
-6 -144 4 -3 8 -19 8 -35 0 -18 4 -28 10 -24 6 4 10 -7 10 -26 0 -31 1 -31 19
-15 16 14 18 29 16 104 -3 79 -2 85 12 67 14 -18 15 -15 10 43 -6 73 -12 83
-32 56 -13 -17 -14 -15 -13 32 0 28 -4 60 -11 71 -8 16 -8 23 2 26 9 4 9 6 -1
6 -7 1 -15 -6 -19 -15z"/>
<path d="M3978 1924 c-33 -93 -78 -320 -72 -361 3 -21 6 -44 6 -50 2 -20 18
-15 18 5 0 14 2 15 10 2 5 -8 6 -33 3 -57 -10 -76 15 -123 65 -123 15 0 22 3
15 8 -6 4 -19 33 -28 66 -14 47 -16 77 -9 160 9 121 7 226 -6 241 -6 7 -3 33
6 69 20 75 14 103 -8 40z"/>
<path d="M4095 1893 c-5 -21 -9 -47 -10 -58 -1 -11 -7 -30 -13 -42 -7 -12 -12
-41 -11 -65 0 -39 1 -41 10 -18 6 14 11 37 11 53 1 27 17 39 19 15 1 -7 5 16
9 52 5 36 10 71 12 79 1 7 -2 15 -8 18 -7 2 -15 -12 -19 -34z"/>
<path d="M3226 1893 c-11 -11 -6 -23 9 -23 8 0 15 4 15 9 0 13 -16 22 -24 14z"/>
<path d="M3197 1863 c-15 -27 -48 -146 -45 -165 3 -21 5 -19 20 12 33 71 51
147 37 155 -4 3 -10 2 -12 -2z"/>
<path d="M3482 1810 c0 -19 2 -27 5 -17 2 9 2 25 0 35 -3 9 -5 1 -5 -18z"/>
<path d="M3790 1806 c0 -9 5 -16 10 -16 6 0 10 4 10 9 0 6 -4 13 -10 16 -5 3
-10 -1 -10 -9z"/>
<path d="M2757 1746 c-3 -8 -2 -29 3 -45 5 -17 5 -31 1 -31 -17 0 3 -51 27
-70 43 -34 53 -27 37 25 -19 63 -49 135 -56 135 -4 0 -9 -6 -12 -14z"/>
<path d="M3310 1710 c0 -22 5 -40 10 -40 6 0 10 18 10 40 0 22 -4 40 -10 40
-5 0 -10 -18 -10 -40z"/>
<path d="M1520 1721 c0 -6 4 -13 10 -16 6 -3 7 1 4 9 -7 18 -14 21 -14 7z"/>
<path d="M3449 1718 c-1 -7 0 -39 1 -72 1 -40 -1 -56 -9 -52 -6 4 -11 1 -11
-7 0 -8 9 -17 20 -20 12 -3 20 -14 20 -26 0 -12 4 -29 9 -39 5 -9 15 -38 22
-64 6 -27 15 -48 20 -48 9 0 5 31 -17 125 -18 79 -33 187 -27 203 3 6 -2 12
-11 12 -9 0 -17 -6 -17 -12z"/>
<path d="M1511 1608 c-33 -37 -68 -60 -140 -94 -53 -25 -157 -74 -231 -109
-74 -35 -173 -75 -220 -90 -119 -37 -386 -170 -505 -252 -81 -55 -105 -78
-127 -118 -25 -46 -72 -218 -98 -360 -6 -33 -28 -152 -50 -265 -21 -113 -42
-231 -45 -262 l-7 -58 856 0 856 0 0 58 c0 31 -7 86 -15 122 -8 36 -22 117
-30 180 -9 63 -28 180 -42 260 -36 204 -40 266 -18 290 10 11 22 20 27 20 5 0
28 18 50 40 41 39 62 49 72 31 3 -5 22 -12 41 -15 46 -9 52 -26 72 -180 13
-100 14 -130 3 -180 -7 -36 -14 -179 -17 -344 l-5 -282 212 0 212 0 -6 27 c-3
16 -8 53 -12 83 -3 30 -24 111 -45 180 -79 261 -91 336 -57 377 23 28 1 30
-29 3 -25 -24 -32 -26 -37 -14 -10 26 -7 84 5 84 6 0 9 7 6 14 -4 9 2 17 14
21 10 4 19 12 19 18 0 7 13 28 28 47 16 19 43 62 61 95 34 60 49 77 62 69 12
-7 17 35 5 44 -29 23 -92 40 -110 30 -10 -6 -41 -12 -69 -14 -27 -2 -64 -6
-81 -10 -27 -6 -29 -5 -17 10 7 9 19 16 25 16 7 0 21 7 32 15 18 14 17 14 -10
5 -24 -9 -27 -8 -18 3 9 11 1 13 -43 13 -29 -1 -56 -4 -60 -8 -11 -10 -36 3
-28 15 4 6 1 7 -6 2 -7 -4 -22 1 -34 12 -48 42 -60 45 -22 5 21 -23 45 -42 52
-42 20 0 93 -34 93 -43 0 -5 -13 -6 -29 -2 -16 3 -32 2 -35 -4 -7 -11 -25 -7
-72 16 -28 14 -33 14 -71 -5 -50 -26 -127 -83 -172 -128 -18 -19 -37 -34 -41
-34 -12 0 -15 11 -55 213 -36 185 -45 334 -26 452 7 40 5 54 -8 71 -16 20 -17
20 -60 -28z"/>
<path d="M3750 1621 c0 -10 7 -21 15 -25 10 -3 15 1 15 13 0 10 -7 21 -15 25
-10 3 -15 -1 -15 -13z"/>
<path d="M3295 1611 c-3 -6 -3 -16 0 -22 4 -6 7 -44 6 -84 -1 -80 -7 -72 74
-100 18 -6 19 -6 2 5 -14 9 -15 15 -7 25 8 10 7 22 -6 46 -9 18 -19 56 -23 83
-4 36 -11 52 -23 54 -9 2 -19 -2 -23 -7z"/>
<path d="M1617 1579 c4 -13 8 -18 11 -10 2 7 -1 18 -6 23 -8 8 -9 4 -5 -13z"/>
<path d="M1626 1495 c7 -35 44 -118 51 -112 2 3 -5 24 -16 48 -10 24 -24 55
-30 69 -10 24 -10 24 -5 -5z"/>
<path d="M1695 1510 c3 -5 8 -10 11 -10 2 0 4 5 4 10 0 6 -5 10 -11 10 -5 0
-7 -4 -4 -10z"/>
<path d="M3423 1419 c9 -6 15 -14 13 -18 -3 -4 5 -7 17 -8 12 0 16 1 9 4 -6 3
-9 10 -6 15 4 6 2 8 -4 4 -6 -3 -13 -2 -17 4 -3 5 -12 10 -18 10 -7 0 -4 -5 6
-11z"/>
<path d="M1697 1359 c7 -7 15 -10 18 -7 3 3 -2 9 -12 12 -14 6 -15 5 -6 -5z"/>
<path d="M1727 1329 c13 -25 82 -103 87 -98 3 2 -18 29 -46 59 -27 30 -46 48
-41 39z"/>
<path d="M3675 1320 c3 -5 8 -10 11 -10 2 0 4 5 4 10 0 6 -5 10 -11 10 -5 0
-7 -4 -4 -10z"/>
<path d="M2205 1130 c-3 -5 -1 -10 4 -10 6 0 11 5 11 10 0 6 -2 10 -4 10 -3 0
-8 -4 -11 -10z"/>
<path d="M4050 906 c0 -2 6 -18 14 -36 9 -23 15 -28 19 -17 8 22 -3 57 -19 57
-8 0 -14 -2 -14 -4z"/>
<path d="M2500 865 c0 -14 2 -25 4 -25 2 0 6 11 8 25 3 14 1 25 -3 25 -5 0 -9
-11 -9 -25z"/>
<path d="M4123 805 c0 -27 2 -38 4 -22 2 15 2 37 0 50 -2 12 -4 0 -4 -28z"/>
<path d="M4067 823 c-11 -10 -8 -43 3 -43 6 0 10 11 10 25 0 26 -2 29 -13 18z"/>
<path d="M4050 686 c0 -2 7 -7 16 -10 8 -3 12 -2 9 4 -6 10 -25 14 -25 6z"/>
</g>
</svg>
